<?xml version="1.0" standalone="no"?>
<!DOCTYPE svg PUBLIC "-//W3C//DTD SVG 20010904//EN"
 "http://www.w3.org/TR/2001/REC-SVG-20010904/DTD/svg10.dtd">
<svg version="1.0" xmlns="http://www.w3.org/2000/svg"
 width="2720.000000pt" height="1268.000000pt" viewBox="0 0 2720.000000 1268.000000"
 preserveAspectRatio="xMidYMid meet">

<g transform="translate(0.000000,1268.000000) scale(0.100000,-0.100000)"
fill="#ffffff" stroke="none">
<path d="M4665 12658 c-137 -4 -277 -13 -310 -19 -33 -6 -101 -14 -151 -18
-51 -3 -98 -12 -105 -18 -8 -6 -50 -14 -95 -17 -44 -4 -98 -13 -120 -21 -21
-8 -58 -14 -80 -15 -24 0 -47 -6 -54 -15 -8 -9 -29 -15 -56 -15 -24 0 -63 -6
-86 -14 -24 -8 -62 -17 -85 -21 -22 -3 -49 -13 -60 -20 -10 -8 -33 -15 -51
-15 -18 0 -47 -6 -65 -13 -18 -8 -49 -17 -69 -21 -21 -4 -38 -11 -38 -16 0 -5
-17 -12 -37 -15 -21 -3 -51 -12 -66 -20 -16 -8 -36 -15 -46 -15 -9 0 -26 -7
-37 -15 -10 -8 -25 -15 -33 -15 -8 0 -35 -9 -60 -21 -25 -11 -59 -26 -76 -33
-16 -7 -46 -20 -65 -29 -19 -9 -47 -21 -62 -26 -16 -6 -28 -15 -28 -21 0 -5
-9 -10 -20 -10 -21 0 -97 -37 -118 -57 -7 -7 -22 -13 -33 -13 -11 0 -22 -7
-25 -15 -4 -8 -14 -15 -24 -15 -10 0 -25 -7 -34 -15 -8 -8 -25 -20 -38 -25
-36 -17 -70 -37 -77 -47 -3 -5 -19 -15 -35 -23 -59 -30 -66 -35 -66 -47 0 -7
-8 -13 -18 -13 -11 0 -30 -9 -43 -20 -35 -29 -40 -32 -89 -65 -25 -16 -49 -36
-53 -42 -4 -7 -12 -13 -17 -13 -6 0 -18 -8 -28 -17 -10 -10 -29 -25 -41 -33
-21 -14 -50 -39 -137 -119 -17 -16 -41 -32 -53 -36 -11 -3 -21 -11 -21 -16 0
-5 -6 -9 -14 -9 -17 0 -120 -52 -124 -62 -2 -5 -12 -8 -21 -8 -10 0 -26 -9
-36 -20 -10 -11 -22 -20 -27 -20 -5 0 -22 -13 -38 -30 -16 -16 -32 -30 -35
-30 -6 0 -155 -149 -155 -155 0 -3 -12 -18 -28 -33 -15 -15 -48 -53 -74 -83
-26 -31 -78 -77 -115 -102 -139 -94 -183 -162 -183 -280 0 -62 -5 -82 -36
-147 -20 -41 -40 -82 -45 -90 -22 -40 -59 -124 -59 -135 0 -7 -7 -18 -15 -25
-8 -7 -15 -17 -15 -22 0 -11 -34 -91 -55 -130 -8 -14 -15 -34 -15 -45 0 -10
-7 -27 -15 -37 -8 -11 -15 -29 -15 -41 0 -11 -9 -37 -20 -58 -11 -20 -20 -45
-20 -56 0 -10 -7 -32 -15 -47 -8 -16 -15 -45 -15 -64 0 -20 -7 -45 -15 -56
-13 -19 -22 -60 -45 -199 -5 -27 -9 -94 -9 -148 -1 -76 -4 -99 -16 -103 -8 -3
-17 -14 -20 -25 -4 -10 -12 -19 -18 -19 -49 -2 -124 -140 -99 -180 7 -11 12
-29 12 -41 0 -25 45 -125 60 -134 13 -8 13 -85 0 -85 -5 0 -13 -12 -16 -27 -7
-27 -90 -143 -103 -143 -12 0 -201 -177 -201 -188 0 -5 -9 -17 -20 -27 -11
-10 -20 -24 -20 -32 0 -8 -6 -21 -14 -29 -32 -31 -32 -240 0 -275 7 -8 14 -19
14 -24 0 -11 49 -55 61 -55 5 0 9 -4 9 -10 0 -5 26 -21 58 -36 31 -14 64 -30
72 -35 8 -5 20 -11 25 -13 6 -1 26 -9 45 -16 19 -7 58 -18 85 -24 28 -6 60
-17 72 -24 12 -6 38 -12 58 -12 20 0 48 -6 63 -14 15 -7 55 -16 90 -19 35 -4
72 -12 83 -17 10 -6 47 -15 82 -20 122 -18 177 -34 179 -50 3 -34 -4 -77 -16
-105 -41 -89 -56 -272 -30 -355 23 -74 22 -71 44 -105 11 -16 26 -42 35 -57 9
-16 20 -28 25 -28 6 0 10 -6 10 -12 0 -7 14 -26 31 -43 17 -16 35 -41 41 -55
10 -27 2 -110 -11 -110 -9 0 -61 -78 -61 -91 0 -5 -4 -9 -9 -9 -10 0 -91 -116
-91 -130 0 -6 -4 -10 -10 -10 -5 0 -16 -15 -25 -32 -8 -18 -20 -42 -26 -53
-21 -34 -28 -49 -43 -81 -8 -17 -19 -35 -25 -38 -6 -4 -11 -15 -11 -25 0 -10
-7 -24 -15 -31 -8 -7 -15 -23 -15 -36 0 -12 -4 -26 -10 -29 -14 -9 -60 -104
-60 -125 0 -10 -7 -20 -15 -24 -8 -3 -15 -13 -15 -22 0 -9 -6 -28 -14 -42 -8
-15 -34 -67 -58 -117 -23 -49 -48 -96 -55 -103 -7 -7 -13 -20 -13 -28 0 -9 -7
-22 -15 -30 -8 -9 -15 -24 -15 -34 0 -11 -6 -23 -13 -27 -8 -4 -24 -28 -38
-53 -13 -25 -27 -46 -31 -48 -9 -4 -58 -107 -58 -120 0 -5 -7 -15 -15 -22 -8
-7 -15 -23 -15 -35 0 -12 -7 -40 -16 -61 -12 -28 -15 -57 -11 -109 6 -77 32
-178 47 -183 6 -2 10 -12 10 -22 0 -21 63 -107 93 -129 11 -8 27 -22 36 -33 8
-10 21 -18 29 -18 7 0 15 -7 18 -15 4 -8 11 -15 18 -15 6 0 28 -9 49 -20 20
-11 45 -20 54 -20 10 0 26 -7 36 -15 11 -7 38 -16 60 -20 23 -3 73 -13 110
-22 54 -13 67 -19 64 -32 -14 -43 -33 -87 -45 -99 -6 -7 -12 -22 -12 -33 0
-11 -6 -32 -14 -47 -22 -45 -36 -192 -25 -263 11 -69 21 -92 47 -111 10 -7 31
-32 47 -55 15 -24 32 -43 36 -43 5 0 9 -6 9 -12 0 -7 16 -29 35 -48 37 -36 47
-83 20 -94 -8 -3 -15 -11 -15 -18 -1 -7 -9 -31 -20 -53 -28 -58 -27 -174 2
-234 12 -25 27 -50 34 -56 16 -14 42 -134 49 -225 7 -88 -12 -190 -46 -250 -5
-8 -14 -26 -19 -40 -6 -14 -17 -40 -26 -57 -27 -59 -43 -97 -65 -158 -12 -33
-28 -72 -35 -87 -8 -14 -14 -38 -14 -53 0 -14 -7 -40 -17 -58 -13 -26 -16 -65
-17 -213 l-1 -180 30 -43 c45 -65 75 -123 75 -147 0 -12 7 -27 15 -34 8 -7 15
-17 15 -23 0 -16 53 -117 62 -117 4 0 8 -7 8 -15 0 -16 131 -155 146 -155 5 0
17 -9 27 -20 9 -11 23 -20 30 -20 14 0 67 -22 97 -40 43 -26 113 -60 125 -60
7 0 18 -7 25 -15 7 -8 22 -15 34 -15 11 0 29 -7 40 -15 10 -8 39 -17 64 -21
25 -4 57 -13 71 -20 14 -8 55 -14 91 -15 36 -1 79 -4 95 -8 37 -8 113 10 125
30 7 11 46 15 172 19 90 3 168 9 175 13 6 4 50 11 98 16 48 5 90 13 94 18 3 6
31 13 61 16 30 3 69 12 85 21 17 9 37 16 46 16 8 0 24 7 35 15 10 8 34 15 53
15 18 0 63 7 100 16 62 15 73 15 146 0 58 -12 85 -23 98 -39 24 -31 67 -116
67 -134 0 -8 6 -27 14 -41 8 -15 19 -58 24 -97 16 -110 38 -205 51 -218 6 -6
11 -26 11 -45 0 -19 7 -50 16 -70 20 -49 55 -123 65 -142 4 -8 22 -42 39 -75
32 -63 43 -83 60 -112 6 -10 15 -29 20 -43 6 -14 15 -34 20 -45 5 -11 14 -32
20 -47 5 -16 13 -28 18 -28 5 0 12 -22 15 -49 3 -27 10 -58 15 -68 6 -10 15
-45 20 -78 6 -33 15 -80 21 -105 5 -25 10 -75 11 -112 0 -61 2 -69 25 -84 31
-20 134 -13 171 11 13 8 31 15 41 15 10 0 27 6 38 14 11 7 35 17 53 21 18 4
45 13 60 21 15 8 37 14 48 14 12 0 27 6 33 14 6 7 34 16 61 20 27 4 52 11 55
15 3 5 23 12 44 16 22 4 45 13 52 21 6 8 22 14 36 14 13 0 36 6 51 14 15 7 44
16 65 20 20 4 37 11 37 16 0 5 17 12 38 15 20 3 50 12 65 20 16 8 39 15 51 15
12 0 30 6 41 14 11 7 39 17 62 20 22 4 49 14 60 21 10 8 30 15 44 15 15 0 32
6 38 14 6 7 34 16 61 20 27 4 52 11 55 15 3 5 23 12 44 16 22 4 45 13 52 21 6
8 23 14 38 14 14 0 39 7 55 15 15 8 37 15 47 15 11 0 36 9 56 20 21 11 47 20
58 20 11 0 29 6 40 14 11 7 38 16 59 19 22 4 42 10 45 15 3 4 26 13 51 19 47
11 95 27 145 48 17 7 50 18 75 24 109 30 134 39 138 49 2 7 18 12 35 12 18 0
45 7 61 15 15 8 36 15 45 15 9 0 33 9 54 20 20 11 47 20 60 20 13 0 32 7 43
15 10 8 30 15 44 15 14 0 35 7 47 15 11 8 40 17 64 21 24 4 53 13 64 20 11 8
31 14 45 14 14 0 32 6 38 12 7 7 36 18 65 25 90 20 147 39 159 51 7 7 22 12
35 12 13 0 40 7 60 15 19 8 43 15 52 15 9 0 33 9 54 20 20 11 47 20 60 20 13
0 32 7 43 15 10 8 30 15 44 15 14 0 43 9 65 20 22 11 52 19 66 20 14 0 34 7
45 15 10 8 30 15 44 15 14 0 34 6 45 14 11 7 40 16 64 20 24 4 56 13 72 21 15
8 38 15 51 15 13 0 32 6 43 14 11 7 41 16 67 20 26 4 50 11 53 16 3 4 27 11
55 15 27 4 54 13 61 21 6 8 28 14 48 14 20 0 49 7 65 15 15 8 38 15 50 15 11
0 35 7 51 16 17 8 53 18 80 21 28 3 62 12 77 19 15 8 42 14 60 14 19 0 42 6
53 14 11 7 45 17 75 21 30 4 67 14 82 21 15 8 40 14 56 14 16 0 35 6 41 14 6
7 35 16 65 19 33 3 70 15 95 31 l41 26 0 83 c0 53 -5 89 -14 102 -7 11 -17 31
-21 45 -12 43 -46 110 -56 110 -5 0 -9 8 -9 18 -1 9 -9 35 -20 57 -11 22 -19
45 -20 51 0 6 -7 17 -15 24 -8 7 -15 22 -15 34 0 12 -7 31 -15 42 -8 10 -15
28 -15 39 0 11 -9 37 -20 58 -11 20 -20 47 -20 59 0 13 -7 36 -15 52 -8 15
-15 40 -15 55 0 15 -6 35 -14 46 -7 11 -17 42 -21 70 -4 27 -13 62 -21 77 -8
15 -14 38 -14 51 0 14 -7 30 -15 37 -8 7 -15 19 -15 27 0 44 -104 169 -149
180 -15 3 -32 11 -40 17 -22 18 -147 37 -273 43 -144 6 -142 4 -151 159 -4 61
-11 123 -17 138 -5 15 -11 86 -12 157 -3 115 -1 131 15 140 9 6 17 18 17 27 0
10 6 24 12 30 14 14 32 87 52 202 7 41 18 88 24 103 7 16 12 46 12 68 0 22 5
49 11 60 5 11 15 46 20 78 5 33 16 72 24 87 8 16 15 36 15 44 0 8 7 24 15 34
8 11 15 26 15 35 0 8 6 22 14 30 18 22 56 147 56 188 0 18 4 33 9 33 5 0 13
10 16 23 14 47 50 133 62 148 7 8 13 22 13 30 0 30 45 99 65 99 11 1 38 9 60
20 22 11 46 19 53 20 7 0 15 7 18 15 4 8 11 15 16 15 13 0 42 35 75 90 15 25
33 51 40 58 7 7 13 22 13 31 0 10 7 24 15 31 8 7 15 21 15 31 0 9 7 24 15 32
7 8 17 28 21 43 4 16 13 38 20 49 8 11 14 29 14 40 0 11 9 38 20 60 11 22 20
49 20 60 0 12 5 26 10 31 6 6 13 33 16 60 5 42 12 54 38 72 29 20 45 22 167
23 74 0 159 5 189 10 30 6 101 14 156 18 56 5 117 14 135 20 19 5 69 15 113
20 43 5 83 14 89 20 6 6 20 11 30 11 46 0 152 90 164 139 3 14 13 37 22 51 24
37 23 260 -1 287 -10 11 -18 24 -18 30 0 6 -13 38 -30 71 -33 67 -36 103 -19
217 5 39 14 153 20 255 5 102 14 221 19 265 11 105 11 1008 0 1105 -5 41 -14
136 -19 211 -6 75 -15 147 -20 162 -6 14 -13 72 -17 129 -3 57 -13 121 -20
143 -8 22 -14 61 -14 87 0 26 -5 59 -12 75 -7 15 -17 64 -24 108 -12 81 -27
145 -46 200 -6 17 -15 55 -20 85 -6 30 -14 60 -18 65 -5 6 -11 31 -15 57 -4
26 -13 53 -21 59 -8 6 -14 26 -14 43 0 17 -7 44 -15 60 -8 15 -15 36 -15 45 0
9 -9 33 -20 54 -11 20 -20 45 -20 55 0 10 -7 27 -15 38 -8 10 -15 27 -15 37 0
9 -9 34 -20 54 -11 21 -20 45 -20 55 0 9 -4 20 -10 23 -5 3 -14 24 -20 45 -6
22 -15 40 -20 40 -6 0 -10 7 -10 15 0 8 -9 32 -20 52 -11 21 -20 44 -20 51 0
7 -7 15 -15 18 -8 4 -15 16 -15 29 0 12 -6 28 -14 34 -8 7 -18 25 -21 41 -3
16 -13 31 -21 34 -8 3 -14 14 -14 25 0 11 -6 26 -13 33 -7 7 -18 24 -25 38 -7
14 -21 39 -32 55 -11 17 -23 37 -27 45 -4 8 -22 36 -40 62 -18 26 -33 51 -33
56 0 4 -8 15 -17 24 -27 25 -43 46 -43 56 0 5 -9 17 -20 27 -11 10 -20 23 -20
29 0 6 -12 22 -26 35 -14 13 -32 37 -40 53 -8 15 -19 28 -24 28 -6 0 -10 6
-10 13 0 7 -8 20 -17 28 -10 9 -43 44 -73 79 -30 35 -63 72 -73 84 -79 91
-243 250 -351 341 -26 22 -61 52 -79 68 -18 15 -50 39 -72 54 -22 16 -44 34
-48 40 -4 7 -15 13 -22 13 -8 0 -15 4 -15 9 0 5 -13 14 -29 21 -16 6 -32 18
-35 26 -3 8 -12 14 -21 14 -8 0 -15 4 -15 9 0 5 -10 13 -21 16 -12 4 -42 22
-66 41 -25 19 -51 34 -58 34 -8 0 -18 6 -22 13 -4 7 -19 18 -33 25 -14 6 -52
27 -85 46 -104 60 -156 86 -171 86 -8 0 -14 4 -14 10 0 5 -12 13 -27 16 -16 4
-39 15 -52 26 -13 10 -32 18 -42 18 -11 0 -19 4 -19 10 0 5 -16 12 -35 16 -19
3 -39 12 -46 20 -6 8 -17 14 -23 14 -6 1 -29 9 -51 20 -22 11 -50 19 -62 20
-13 0 -23 4 -23 9 0 9 -62 33 -135 53 -22 6 -47 17 -56 24 -8 8 -26 14 -40 14
-13 0 -33 7 -43 15 -11 8 -33 15 -48 15 -16 0 -46 9 -68 20 -22 11 -50 20 -64
20 -14 0 -27 4 -31 9 -3 6 -27 13 -53 16 -26 3 -58 12 -72 20 -14 7 -47 16
-75 20 -27 4 -55 12 -61 17 -7 4 -43 11 -80 15 -38 3 -78 12 -89 19 -11 8 -36
14 -56 14 -20 0 -58 7 -85 15 -27 8 -89 18 -139 22 -49 3 -101 12 -115 20 -14
7 -57 13 -97 13 -39 0 -84 5 -99 10 -65 25 -625 41 -1009 28z"/>
<path d="M21855 12659 c-132 -4 -269 -14 -305 -20 -36 -6 -103 -15 -150 -18
-47 -3 -94 -11 -105 -17 -11 -6 -60 -14 -108 -18 -48 -4 -106 -14 -129 -22
-22 -7 -60 -14 -83 -14 -26 0 -48 -6 -55 -15 -7 -9 -29 -15 -54 -15 -22 0 -59
-5 -81 -11 -22 -6 -60 -15 -85 -20 -25 -5 -57 -16 -72 -24 -14 -8 -40 -15 -58
-15 -18 0 -46 -6 -63 -14 -18 -8 -49 -17 -69 -21 -21 -3 -38 -10 -38 -15 0 -5
-17 -12 -37 -15 -21 -3 -51 -12 -66 -20 -16 -8 -39 -15 -51 -15 -12 0 -30 -6
-41 -14 -11 -7 -36 -17 -55 -21 -19 -4 -44 -14 -55 -21 -11 -8 -29 -14 -41
-14 -12 0 -27 -7 -34 -15 -7 -8 -22 -15 -34 -15 -11 -1 -39 -9 -61 -20 -22
-11 -46 -19 -53 -20 -7 0 -15 -7 -18 -15 -4 -8 -18 -15 -34 -15 -15 0 -33 -7
-40 -15 -7 -8 -20 -15 -30 -15 -9 0 -27 -9 -40 -20 -13 -11 -29 -20 -36 -20
-16 0 -92 -39 -99 -50 -3 -5 -18 -11 -34 -15 -16 -3 -35 -13 -42 -21 -6 -8
-20 -14 -30 -14 -10 0 -22 -6 -26 -12 -4 -7 -34 -26 -65 -43 -32 -16 -58 -33
-58 -37 0 -5 -6 -8 -14 -8 -8 0 -21 -6 -28 -13 -7 -7 -25 -18 -40 -24 -16 -7
-28 -17 -28 -23 0 -5 -5 -10 -10 -10 -6 0 -33 -16 -60 -35 -27 -19 -54 -35
-59 -35 -5 0 -11 -7 -15 -15 -3 -8 -11 -15 -18 -15 -7 0 -30 -16 -51 -35 -21
-19 -42 -35 -47 -35 -5 0 -13 -6 -17 -14 -4 -7 -13 -15 -20 -17 -23 -8 -123
-99 -300 -275 -101 -100 -183 -185 -183 -188 0 -4 -13 -19 -29 -34 -16 -15
-63 -72 -105 -127 -42 -55 -83 -107 -91 -116 -8 -9 -15 -21 -15 -27 0 -5 -3
-12 -7 -14 -5 -1 -21 -23 -38 -48 -16 -25 -32 -47 -35 -50 -10 -10 -103 -154
-126 -195 -6 -11 -25 -47 -42 -79 -18 -33 -36 -64 -41 -70 -4 -6 -11 -23 -15
-38 -3 -16 -11 -28 -16 -28 -6 0 -10 -5 -10 -11 0 -12 -33 -89 -51 -119 -5 -8
-12 -22 -16 -30 -3 -8 -14 -34 -24 -57 -11 -23 -19 -48 -19 -56 0 -8 -6 -20
-14 -26 -8 -6 -16 -24 -19 -39 -7 -37 -34 -111 -52 -144 -8 -14 -15 -34 -15
-45 0 -10 -7 -27 -15 -37 -8 -11 -15 -31 -15 -45 -1 -14 -9 -44 -20 -66 -11
-22 -19 -50 -20 -61 0 -12 -7 -38 -15 -57 -8 -20 -15 -50 -15 -67 0 -17 -6
-41 -14 -53 -8 -12 -18 -44 -21 -72 -4 -27 -11 -55 -16 -61 -5 -6 -12 -40 -16
-75 -3 -34 -12 -74 -20 -89 -7 -14 -13 -44 -13 -66 0 -23 -6 -59 -14 -80 -7
-22 -16 -80 -20 -130 -4 -51 -14 -113 -22 -140 -8 -26 -14 -80 -14 -120 0 -40
-8 -101 -17 -136 -16 -57 -17 -131 -16 -768 0 -522 4 -719 13 -760 15 -64 26
-510 13 -519 -24 -16 -75 -151 -86 -226 -8 -50 26 -207 49 -226 8 -6 14 -17
14 -23 0 -26 117 -116 150 -116 12 0 33 -6 48 -14 15 -7 63 -16 106 -20 44 -4
88 -12 98 -17 10 -5 66 -14 126 -19 59 -6 134 -14 167 -19 33 -5 115 -10 183
-10 68 -1 132 -5 142 -11 24 -13 60 -84 60 -121 0 -16 7 -46 15 -66 8 -19 15
-43 15 -52 0 -9 9 -33 20 -54 11 -20 20 -45 20 -55 0 -10 7 -27 15 -38 8 -10
15 -27 15 -36 0 -9 7 -23 15 -31 7 -8 17 -26 20 -40 4 -15 13 -31 21 -38 8 -6
14 -18 14 -25 0 -19 66 -113 99 -142 28 -25 125 -72 147 -72 15 0 54 -34 54
-47 1 -5 9 -26 20 -48 11 -22 19 -46 20 -53 0 -7 7 -15 15 -18 8 -4 15 -17 15
-31 0 -14 6 -39 13 -56 26 -61 49 -132 56 -172 4 -22 28 -83 54 -136 26 -52
47 -106 47 -118 0 -13 7 -35 14 -49 8 -15 20 -56 25 -92 24 -148 33 -197 46
-225 7 -16 16 -60 19 -97 3 -37 9 -75 15 -85 5 -10 15 -33 21 -50 7 -18 16
-33 21 -33 5 0 9 -6 9 -14 0 -7 7 -19 15 -26 18 -15 20 -95 5 -136 -6 -15 -13
-77 -16 -138 -3 -61 -12 -131 -19 -156 -7 -25 -16 -61 -19 -82 -4 -20 -14 -39
-22 -42 -9 -3 -57 -6 -107 -6 -98 0 -259 -28 -279 -48 -7 -7 -21 -12 -31 -12
-28 0 -137 -115 -137 -144 0 -13 -6 -26 -14 -29 -8 -3 -17 -21 -21 -39 -4 -18
-11 -38 -16 -44 -5 -6 -12 -33 -15 -60 -4 -27 -13 -58 -20 -69 -8 -11 -14 -32
-14 -48 0 -15 -6 -40 -14 -55 -7 -15 -17 -47 -21 -71 -4 -25 -14 -51 -21 -59
-8 -7 -14 -25 -14 -40 0 -15 -7 -36 -15 -46 -8 -11 -15 -28 -15 -38 0 -11 -10
-38 -22 -61 -43 -84 -48 -95 -48 -116 0 -12 -7 -24 -15 -27 -8 -4 -15 -11 -15
-16 0 -11 -34 -89 -51 -118 -5 -8 -11 -19 -13 -25 -1 -5 -9 -26 -16 -45 -20
-53 -24 -129 -9 -157 18 -33 74 -61 140 -68 30 -4 68 -13 84 -20 34 -14 95
-31 170 -46 28 -6 64 -17 82 -25 17 -7 43 -14 58 -14 14 0 35 -5 46 -11 11 -5
46 -15 78 -20 33 -5 72 -16 87 -24 16 -8 39 -15 50 -15 12 0 35 -7 50 -15 16
-8 45 -15 64 -15 19 0 43 -7 53 -15 11 -7 38 -17 60 -20 23 -4 47 -11 53 -16
7 -6 35 -12 63 -16 28 -3 56 -12 62 -19 6 -8 22 -14 36 -14 13 0 36 -6 51 -14
15 -7 47 -17 72 -21 25 -4 54 -14 65 -21 11 -8 31 -14 45 -14 14 0 34 -7 44
-15 11 -8 31 -15 46 -15 14 0 42 -9 63 -20 20 -11 45 -20 56 -20 10 0 32 -7
47 -15 16 -8 38 -15 49 -15 12 0 38 -9 60 -20 22 -11 47 -20 56 -20 9 0 30 -7
45 -15 16 -8 40 -15 54 -15 14 0 34 -7 44 -15 11 -8 29 -15 40 -15 12 0 33 -7
48 -14 16 -8 48 -18 73 -21 24 -4 50 -13 56 -21 6 -8 23 -14 38 -14 15 0 32
-5 38 -11 6 -6 33 -15 60 -20 26 -5 62 -15 78 -23 42 -19 94 -37 135 -46 19
-4 49 -15 65 -24 17 -9 37 -16 46 -16 9 0 30 -7 45 -15 16 -8 41 -15 55 -15
15 0 32 -6 38 -14 7 -8 30 -17 52 -21 21 -4 41 -11 44 -16 3 -4 28 -11 55 -15
27 -4 55 -13 61 -20 6 -8 22 -14 36 -14 13 0 34 -6 46 -14 12 -8 40 -17 61
-21 22 -4 49 -13 60 -21 11 -8 32 -14 46 -14 14 0 34 -7 44 -15 11 -8 30 -15
43 -15 13 0 40 -9 60 -20 21 -11 45 -20 54 -20 9 0 30 -7 45 -15 16 -8 41 -15
55 -15 15 0 32 -6 38 -14 7 -8 30 -17 52 -21 21 -4 41 -11 44 -15 3 -5 27 -12
52 -16 26 -4 53 -13 61 -20 7 -8 22 -14 33 -14 11 0 32 -6 47 -14 15 -7 45
-17 66 -20 22 -4 49 -14 60 -22 11 -8 32 -14 46 -14 14 0 34 -7 44 -15 11 -8
30 -15 43 -15 13 0 40 -9 60 -20 21 -11 50 -20 65 -20 14 0 28 -5 30 -10 2 -6
21 -13 43 -17 22 -3 46 -10 53 -16 20 -16 145 -57 173 -57 15 0 29 -7 33 -15
3 -8 17 -15 31 -15 14 0 38 -6 53 -14 15 -8 44 -17 64 -21 21 -4 42 -13 49
-21 6 -8 24 -14 39 -14 15 0 33 -6 39 -14 14 -16 128 -32 159 -22 37 12 50 59
58 196 5 90 11 133 20 141 8 6 14 21 14 33 0 24 37 153 51 176 5 8 12 22 15
30 16 40 50 106 62 118 6 7 12 22 12 33 0 10 4 19 9 19 5 0 15 16 21 35 6 19
16 35 21 35 5 0 9 6 9 13 0 7 9 29 20 50 11 20 20 43 20 50 0 7 5 18 12 25 16
16 58 149 58 186 0 17 7 40 15 50 8 11 15 39 15 63 0 24 6 58 14 76 7 18 16
55 20 82 4 28 14 60 22 72 8 12 14 30 14 40 0 10 16 36 35 58 62 69 171 93
279 60 27 -8 68 -15 92 -15 26 0 44 -5 47 -14 3 -7 23 -17 44 -21 21 -4 43
-11 50 -17 6 -5 38 -12 70 -15 32 -3 64 -11 72 -17 7 -6 46 -14 85 -17 39 -4
98 -12 131 -18 33 -6 109 -11 168 -10 101 1 110 0 133 -22 24 -23 32 -24 148
-22 69 1 135 8 152 14 16 7 54 18 84 25 67 15 127 37 142 52 7 7 19 12 27 12
19 0 121 52 121 62 0 4 8 8 18 8 10 0 26 6 37 14 11 7 31 16 45 19 14 4 40 20
58 37 18 16 36 30 39 30 6 0 53 48 53 55 0 2 14 19 30 37 17 18 33 43 36 55 3
12 12 24 20 27 8 3 14 12 14 21 0 8 9 32 20 52 11 21 20 45 20 54 0 9 7 22 15
29 8 7 15 22 15 33 0 11 16 39 35 63 19 23 35 49 35 56 0 8 5 19 12 26 17 17
23 194 8 262 -6 30 -15 80 -20 110 -4 30 -15 69 -24 85 -9 17 -16 39 -16 51 0
11 -7 29 -15 40 -8 10 -15 29 -15 41 0 12 -6 28 -13 35 -8 7 -17 27 -21 43 -6
28 -29 82 -47 115 -5 8 -14 26 -19 40 -6 14 -14 34 -19 45 -45 101 -61 206
-38 251 8 16 17 58 21 93 5 43 16 77 34 105 33 52 61 131 62 174 0 18 -7 49
-15 69 -8 19 -15 42 -15 51 0 8 -7 23 -16 33 -9 10 -18 35 -21 57 -4 30 -1 43
14 58 11 10 37 44 58 74 21 30 49 66 64 80 53 50 71 102 71 203 0 62 -5 101
-15 121 -8 15 -15 38 -15 50 -1 11 -9 39 -20 61 -11 22 -19 47 -20 56 0 9 -6
22 -14 28 -8 6 -16 25 -18 41 -4 27 -2 30 31 36 39 6 113 21 174 36 20 5 37
13 37 18 0 6 11 10 24 10 21 0 77 25 145 65 41 24 120 114 146 165 14 30 33
67 41 82 10 18 14 62 14 148 0 101 -3 129 -21 168 -30 68 -57 121 -85 167 -13
22 -26 48 -30 58 -3 9 -10 17 -14 17 -9 0 -60 102 -60 118 0 6 -7 12 -15 16
-8 3 -15 14 -15 25 0 11 -7 26 -15 35 -8 8 -15 19 -15 24 0 14 -53 116 -62
120 -5 2 -8 13 -8 25 0 11 -6 28 -13 36 -7 9 -24 43 -36 76 -13 33 -30 67 -37
76 -8 8 -14 20 -14 26 0 10 -41 93 -133 268 -10 19 -23 35 -28 35 -5 0 -9 7
-9 15 0 13 -32 67 -50 85 -3 3 -19 25 -35 50 -29 44 -35 52 -64 86 -23 26 -51
86 -51 106 0 27 22 59 105 159 67 81 109 194 107 294 -1 49 -19 168 -31 200
-28 82 -39 130 -31 144 9 17 91 38 196 51 40 4 80 13 90 18 11 5 53 15 94 21
41 7 79 16 84 21 6 6 25 10 43 10 19 0 46 6 61 14 15 7 44 16 64 20 20 4 50
13 65 21 15 8 34 15 41 15 8 0 26 6 40 13 15 8 45 23 67 33 124 60 185 149
185 271 0 41 -6 79 -15 97 -8 15 -15 34 -15 41 0 6 -9 22 -20 35 -11 13 -20
26 -20 29 0 12 -172 181 -184 181 -9 0 -86 81 -86 91 0 5 -4 9 -9 9 -5 0 -22
26 -36 57 -30 63 -31 129 -1 158 9 9 16 24 16 33 0 9 7 26 15 36 10 14 15 45
15 97 l0 77 -41 38 c-23 22 -54 50 -69 64 -22 21 -28 37 -33 90 -4 36 -12 122
-18 192 -8 84 -16 132 -25 139 -8 6 -14 26 -14 43 0 30 -14 81 -50 181 -10 28
-21 65 -25 83 -4 17 -11 32 -16 32 -5 0 -9 11 -9 26 0 14 -8 42 -19 62 -45 91
-51 105 -51 123 0 11 -7 22 -15 25 -8 4 -15 13 -15 22 0 9 -31 80 -70 157 -59
120 -71 151 -79 220 -12 102 -25 159 -39 176 -49 62 -87 99 -98 99 -8 0 -17 6
-20 13 -2 7 -26 24 -52 37 -25 14 -55 36 -66 49 -10 13 -26 31 -35 40 -9 9
-34 39 -56 66 -22 28 -60 72 -85 98 -25 26 -46 52 -48 57 -2 6 -7 10 -12 10
-4 0 -29 20 -55 45 -26 25 -60 52 -76 61 -16 8 -29 19 -29 24 0 6 -9 10 -19
10 -11 0 -21 4 -23 8 -1 4 -30 20 -63 36 -33 15 -67 32 -75 37 -8 5 -21 12
-28 15 -15 7 -56 42 -121 101 -25 24 -51 43 -58 43 -6 0 -13 4 -15 9 -4 12
-105 91 -117 91 -5 0 -11 7 -15 15 -3 8 -12 15 -21 15 -8 0 -15 4 -15 8 0 9
-77 62 -90 62 -5 0 -13 6 -17 13 -9 14 -59 45 -85 54 -10 3 -18 10 -18 15 0 5
-13 14 -30 19 -16 6 -30 15 -30 20 0 5 -6 9 -14 9 -7 0 -25 9 -39 20 -14 11
-32 20 -41 20 -9 0 -16 4 -16 10 0 5 -12 13 -26 16 -15 4 -35 15 -45 25 -11
11 -26 19 -35 19 -8 0 -22 7 -30 15 -9 8 -26 15 -40 15 -13 0 -24 5 -24 10 0
6 -12 15 -27 21 -16 5 -44 17 -63 26 -19 9 -48 22 -65 29 -16 7 -51 22 -76 33
-25 12 -52 21 -60 21 -8 0 -23 7 -33 15 -11 8 -29 15 -40 15 -12 0 -30 7 -40
15 -11 8 -30 15 -43 15 -13 0 -40 9 -60 20 -21 11 -45 20 -54 20 -9 0 -33 7
-52 15 -20 8 -49 15 -64 15 -16 0 -38 6 -49 14 -11 8 -42 17 -69 21 -28 4 -55
12 -61 17 -7 4 -41 11 -78 15 -36 3 -71 12 -77 19 -6 8 -28 14 -49 14 -21 0
-56 7 -78 14 -23 8 -81 18 -128 22 -48 4 -99 13 -113 20 -14 8 -54 14 -89 14
-35 0 -72 5 -83 11 -48 25 -688 42 -1064 28z"/>
<path d="M15652 7595 c-18 -18 -32 -38 -32 -44 0 -6 -4 -11 -9 -11 -5 0 -14
-13 -21 -30 -7 -16 -15 -30 -19 -30 -3 0 -18 -21 -31 -47 -14 -27 -28 -49 -32
-51 -4 -2 -22 -28 -40 -59 -18 -30 -41 -67 -50 -82 -10 -14 -23 -36 -29 -48
-16 -29 -66 -31 -102 -3 -14 11 -30 20 -37 20 -6 0 -18 7 -26 15 -9 8 -24 15
-34 15 -10 0 -22 4 -25 10 -9 14 -104 60 -125 60 -9 0 -23 7 -30 15 -7 8 -20
15 -29 15 -9 0 -26 6 -37 14 -11 8 -37 17 -57 21 -20 4 -41 13 -48 21 -6 8
-23 14 -38 14 -14 1 -37 7 -51 15 -14 8 -34 14 -45 15 -11 0 -37 9 -58 20 -20
11 -48 20 -61 20 -13 0 -37 7 -52 15 -16 8 -47 15 -69 15 -22 0 -50 6 -61 14
-11 8 -49 19 -85 25 -35 5 -84 14 -109 20 -25 6 -76 10 -113 11 -47 0 -76 5
-94 17 -24 16 -63 18 -422 17 -353 0 -400 -2 -430 -17 -21 -11 -59 -17 -100
-17 -36 -1 -86 -5 -111 -11 -25 -6 -73 -14 -108 -19 -34 -5 -72 -16 -85 -25
-12 -8 -39 -15 -60 -15 -22 0 -53 -6 -70 -14 -18 -8 -49 -17 -69 -21 -21 -3
-38 -10 -38 -15 0 -5 -21 -12 -47 -16 -27 -4 -57 -13 -68 -20 -11 -8 -32 -14
-47 -14 -15 0 -31 -6 -35 -13 -4 -7 -26 -17 -48 -24 -70 -20 -119 -41 -123
-52 -2 -6 -12 -11 -23 -11 -10 0 -36 -9 -56 -20 -21 -11 -43 -20 -49 -20 -7 0
-14 -7 -18 -15 -3 -8 -16 -15 -29 -15 -14 0 -30 -6 -36 -14 -7 -8 -23 -17 -36
-20 -14 -4 -25 -10 -25 -15 0 -5 -14 -12 -31 -16 -17 -4 -33 -13 -36 -21 -3
-8 -13 -14 -23 -14 -9 0 -27 -9 -40 -20 -12 -10 -42 -29 -66 -41 -24 -11 -44
-25 -44 -30 0 -5 -4 -9 -9 -9 -14 0 -91 -52 -91 -62 0 -4 -4 -8 -9 -8 -14 0
-91 -52 -91 -62 0 -4 -7 -8 -15 -8 -9 0 -18 -7 -21 -15 -4 -8 -10 -15 -15 -15
-5 0 -17 -8 -27 -17 -25 -24 -99 -83 -133 -108 -16 -11 -29 -26 -29 -32 0 -7
-5 -13 -12 -13 -12 0 -328 -313 -328 -325 0 -3 -13 -18 -28 -33 -23 -21 -115
-133 -154 -187 -4 -5 -19 -24 -33 -41 -14 -18 -25 -36 -25 -42 0 -5 -7 -12
-15 -16 -8 -3 -15 -12 -15 -20 0 -7 -7 -16 -15 -20 -8 -3 -15 -10 -15 -16 0
-6 -15 -32 -33 -58 -18 -26 -36 -54 -40 -62 -4 -8 -16 -28 -27 -45 -11 -16
-25 -41 -32 -55 -7 -14 -18 -31 -25 -38 -7 -7 -13 -22 -13 -32 0 -11 -6 -23
-12 -27 -19 -12 -58 -89 -58 -112 0 -12 -4 -21 -9 -21 -11 0 -61 -102 -61
-124 0 -9 -4 -16 -10 -16 -5 0 -14 -18 -20 -40 -6 -21 -15 -42 -20 -45 -6 -3
-10 -14 -10 -23 0 -10 -9 -34 -20 -55 -11 -20 -20 -45 -20 -54 0 -10 -7 -27
-15 -37 -8 -11 -15 -30 -15 -43 0 -13 -9 -40 -20 -60 -11 -21 -20 -45 -20 -54
0 -9 -7 -30 -15 -45 -8 -16 -15 -47 -15 -70 0 -22 -6 -46 -12 -52 -14 -14 -34
-94 -50 -197 -6 -38 -17 -84 -24 -102 -8 -17 -14 -55 -14 -85 0 -29 -8 -82
-17 -118 -14 -56 -17 -126 -17 -495 0 -372 2 -439 17 -498 9 -38 17 -92 17
-120 0 -29 7 -65 15 -81 8 -15 15 -42 15 -60 0 -17 5 -49 11 -71 6 -22 16 -69
24 -103 7 -35 18 -69 24 -75 6 -6 11 -27 11 -47 0 -19 7 -48 15 -64 8 -15 15
-36 15 -45 0 -9 7 -29 16 -46 9 -16 20 -46 25 -65 12 -55 42 -135 51 -138 4
-2 8 -11 8 -21 0 -9 9 -34 20 -56 11 -22 20 -47 20 -56 0 -9 7 -22 15 -29 8
-7 15 -19 15 -26 0 -8 9 -31 20 -51 11 -21 20 -44 20 -51 0 -7 7 -15 15 -18 8
-4 15 -17 15 -29 0 -13 7 -30 15 -38 7 -8 17 -26 21 -41 3 -14 10 -26 14 -26
5 0 20 -24 35 -52 41 -82 59 -112 73 -121 6 -4 12 -14 12 -21 0 -7 9 -23 20
-36 11 -13 20 -29 20 -37 0 -7 4 -13 9 -13 5 0 12 -8 16 -19 5 -16 16 -31 55
-78 5 -7 10 -15 10 -19 0 -3 11 -20 25 -38 14 -17 29 -35 33 -41 53 -70 132
-166 154 -187 16 -15 28 -30 28 -34 0 -14 194 -213 310 -316 41 -37 91 -81
110 -98 19 -18 47 -38 63 -46 15 -8 27 -19 27 -24 0 -6 7 -10 15 -10 8 0 15
-4 15 -9 0 -5 23 -24 50 -42 28 -18 50 -36 50 -41 0 -4 5 -8 11 -8 5 0 31 -16
56 -35 25 -19 51 -35 58 -35 7 0 15 -7 19 -15 3 -8 10 -15 15 -15 5 0 33 -16
62 -35 30 -19 61 -35 70 -35 9 0 19 -6 22 -13 2 -7 29 -25 58 -40 64 -34 83
-44 107 -57 9 -6 28 -15 42 -20 34 -14 42 -18 60 -29 8 -5 33 -17 55 -26 22
-10 58 -26 80 -36 94 -42 114 -49 138 -49 14 0 27 -6 30 -14 3 -8 24 -17 46
-21 23 -4 43 -11 46 -16 3 -4 28 -11 55 -15 27 -4 55 -13 61 -20 6 -8 22 -14
36 -14 13 0 39 -6 58 -14 18 -8 60 -18 92 -21 32 -4 70 -14 85 -21 15 -8 48
-14 73 -14 26 0 56 -5 67 -11 11 -6 86 -17 167 -25 80 -8 178 -19 216 -24 88
-11 351 -11 430 1 33 5 127 15 209 23 82 8 153 19 159 25 6 6 33 11 60 11 27
0 61 6 75 14 15 8 54 19 87 24 75 13 141 30 180 47 17 8 49 17 72 20 24 4 45
11 49 16 3 5 13 9 22 9 10 0 35 9 57 20 22 11 49 20 60 20 11 0 29 6 40 14 11
7 35 17 53 21 17 3 32 11 32 15 0 5 18 14 40 20 22 6 40 15 40 20 0 6 11 10
24 10 13 0 29 7 36 15 7 8 17 15 22 15 18 0 118 52 118 61 0 5 6 9 14 9 20 0
116 51 116 61 0 5 7 9 15 9 16 0 77 39 83 52 2 4 27 19 57 32 29 14 55 29 57
33 5 12 66 53 77 53 6 0 14 6 18 14 4 7 25 25 45 38 20 14 43 31 51 39 8 8 25
21 37 29 12 8 28 20 34 26 6 6 39 33 71 60 33 26 79 67 102 91 23 24 47 43 53
43 5 0 10 7 10 15 0 8 4 15 9 15 12 0 61 47 61 60 0 5 7 10 15 10 8 0 15 3 15
8 0 4 30 39 66 77 36 39 78 86 93 105 14 19 32 39 38 43 7 4 13 15 13 22 0 8
7 15 15 15 8 0 15 7 15 15 0 8 4 15 9 15 4 0 21 19 37 43 16 23 50 70 76 103
27 34 48 64 48 68 0 3 16 29 35 56 19 27 35 54 35 60 0 5 4 10 10 10 5 0 17
15 25 33 8 17 24 46 35 62 11 17 22 37 26 45 3 8 10 22 15 30 5 8 15 26 21 40
7 14 18 31 25 38 7 7 13 24 13 38 0 13 4 24 9 24 9 0 21 24 78 150 9 19 21 46
28 60 7 14 15 38 19 54 4 15 14 35 21 43 8 8 15 24 15 36 0 12 7 31 15 41 8
11 15 34 15 52 0 17 7 37 15 44 8 7 17 28 21 48 4 19 13 47 20 61 8 14 14 42
14 61 0 20 5 41 11 47 13 13 38 109 51 198 5 39 16 82 24 97 8 14 14 48 14 75
0 26 6 69 14 94 8 25 17 102 21 170 3 68 13 173 22 232 16 118 13 150 -19 185
l-21 22 -425 0 c-413 0 -426 -1 -458 -21 l-34 -21 -1 -96 c0 -53 -4 -122 -9
-152 -5 -30 -14 -104 -21 -165 -6 -60 -18 -122 -25 -137 -8 -15 -14 -42 -14
-61 0 -19 -7 -48 -15 -63 -8 -16 -15 -42 -15 -59 0 -16 -9 -48 -20 -70 -11
-22 -20 -51 -20 -65 0 -14 -7 -34 -15 -44 -8 -11 -15 -34 -15 -52 0 -19 -6
-34 -15 -38 -8 -3 -15 -13 -15 -23 0 -10 -9 -35 -20 -56 -11 -20 -20 -48 -20
-62 0 -14 -4 -25 -9 -25 -8 0 -33 -46 -60 -110 -6 -14 -15 -33 -21 -42 -22
-39 -30 -54 -45 -83 -8 -16 -24 -43 -35 -60 -11 -16 -23 -37 -27 -45 -8 -19
-44 -70 -60 -88 -7 -7 -13 -20 -13 -28 0 -8 -4 -14 -9 -14 -5 0 -30 -31 -56
-70 -26 -38 -51 -70 -56 -70 -5 0 -9 -4 -9 -10 0 -5 -13 -22 -28 -37 -16 -16
-49 -53 -73 -83 -44 -54 -182 -193 -227 -227 -13 -10 -39 -33 -58 -50 -19 -18
-39 -33 -44 -33 -6 0 -10 -4 -10 -10 0 -5 -12 -16 -27 -24 -16 -8 -40 -25 -54
-37 -35 -32 -58 -47 -91 -60 -16 -6 -28 -15 -28 -20 0 -5 -10 -14 -22 -19 -25
-11 -39 -19 -110 -67 -26 -18 -54 -33 -61 -33 -7 0 -17 -4 -23 -9 -15 -16
-104 -61 -120 -61 -8 0 -17 -7 -20 -15 -4 -8 -16 -15 -28 -15 -12 0 -30 -6
-41 -14 -11 -7 -33 -16 -49 -20 -15 -4 -35 -14 -43 -21 -8 -8 -27 -15 -42 -15
-15 0 -36 -7 -47 -15 -10 -8 -33 -15 -49 -15 -17 0 -40 -6 -51 -14 -11 -8 -46
-19 -77 -25 -31 -6 -66 -15 -76 -21 -11 -5 -40 -10 -65 -10 -24 0 -51 -6 -58
-13 -13 -13 -313 -41 -443 -41 -120 -1 -432 26 -462 40 -17 8 -51 14 -75 14
-24 0 -49 5 -54 10 -6 6 -39 15 -75 21 -35 6 -74 17 -86 25 -12 8 -35 14 -50
14 -15 0 -37 7 -47 15 -11 8 -29 15 -40 15 -19 0 -54 14 -138 57 -14 7 -36 13
-47 13 -12 0 -24 7 -27 15 -4 8 -14 15 -23 15 -9 0 -29 9 -46 20 -16 11 -37
20 -46 20 -9 0 -19 7 -23 15 -3 8 -14 15 -25 15 -11 0 -23 5 -26 10 -4 6 -21
17 -38 25 -36 17 -65 34 -85 53 -7 6 -17 12 -22 12 -5 0 -15 6 -22 13 -23 21
-77 57 -85 57 -5 0 -16 8 -24 17 -9 10 -26 25 -39 33 -12 8 -30 22 -39 31 -9
8 -31 26 -50 39 -18 13 -63 52 -100 87 -36 34 -69 63 -73 63 -5 0 -8 4 -8 9 0
11 -80 91 -91 91 -5 0 -9 6 -9 13 0 7 -13 24 -28 37 -15 14 -56 61 -91 105
-35 44 -67 82 -72 83 -5 2 -9 7 -9 12 0 13 -53 90 -62 90 -4 0 -8 4 -8 9 0 14
-52 91 -62 91 -4 0 -8 8 -8 18 0 10 -5 23 -11 29 -13 13 -33 46 -54 90 -8 17
-19 34 -25 38 -5 3 -10 15 -10 25 0 10 -6 25 -14 32 -7 8 -17 25 -21 38 -4 14
-14 34 -21 45 -8 11 -14 27 -14 36 0 9 -7 19 -15 23 -8 3 -15 16 -15 28 -1 13
-9 41 -20 63 -11 22 -19 47 -20 56 0 9 -7 22 -15 29 -8 7 -15 24 -15 39 0 14
-7 39 -15 55 -8 15 -15 38 -15 50 -1 11 -9 39 -20 61 -11 22 -20 56 -20 75 0
19 -7 48 -15 64 -8 15 -15 46 -15 68 0 22 -6 54 -14 71 -15 33 -41 342 -41
487 0 136 26 444 41 483 8 20 14 55 14 76 0 21 7 52 15 67 8 16 15 47 15 69 0
22 9 58 20 80 11 22 19 50 20 61 0 12 7 35 15 50 8 16 15 41 15 55 0 15 7 32
15 39 8 7 15 20 15 29 1 9 9 34 20 56 11 22 19 47 20 56 0 9 7 22 15 29 8 7
15 19 15 26 0 8 9 31 20 51 11 21 20 45 20 54 0 9 7 19 15 23 8 3 15 14 15 24
0 10 5 23 11 29 11 11 32 48 74 131 14 28 30 52 33 52 4 0 19 21 32 47 14 25
36 58 49 72 12 14 29 38 37 54 8 15 19 27 24 27 6 0 10 7 10 15 0 7 6 18 13
22 7 4 39 41 71 81 85 107 274 294 346 342 12 8 37 29 55 46 18 18 37 33 41
35 29 13 84 52 84 60 0 5 7 9 15 9 7 0 18 6 22 13 4 7 21 19 37 27 56 28 66
35 66 42 0 3 29 20 65 37 36 17 65 35 65 41 0 5 7 10 15 10 8 0 32 9 52 20 21
11 43 20 50 20 7 0 13 4 13 10 0 5 18 14 40 20 21 6 42 15 45 20 3 6 14 10 24
10 10 0 24 6 30 14 6 7 29 16 50 20 21 3 51 13 67 21 16 8 39 15 50 15 12 0
27 6 33 14 6 7 34 16 62 19 28 4 56 10 63 15 6 5 35 12 65 16 30 4 66 13 80
20 14 7 73 16 131 19 58 4 121 11 140 17 45 13 425 13 470 0 19 -6 80 -13 135
-16 55 -3 116 -12 135 -19 19 -8 58 -19 85 -24 129 -26 161 -34 178 -42 24
-13 167 -59 182 -59 7 0 18 -7 25 -15 7 -8 21 -15 30 -15 10 0 31 -6 47 -14
15 -8 40 -19 56 -25 33 -13 35 -37 5 -63 -50 -41 -132 -115 -176 -158 -26 -25
-72 -65 -102 -90 -30 -25 -62 -53 -72 -62 -9 -9 -28 -24 -41 -33 -24 -16 -40
-57 -30 -81 8 -21 65 -41 138 -49 38 -4 79 -13 90 -21 10 -8 37 -14 58 -14 21
0 47 -5 59 -11 11 -6 50 -15 86 -20 36 -5 71 -14 77 -19 7 -6 34 -13 61 -16
27 -3 66 -12 87 -20 20 -8 57 -14 80 -14 24 0 48 -5 54 -11 7 -7 40 -18 75
-25 35 -7 81 -17 103 -23 22 -6 54 -11 72 -11 17 0 44 -6 60 -14 28 -14 76
-26 208 -50 39 -7 80 -18 92 -24 12 -7 39 -12 60 -12 22 0 44 -5 50 -11 5 -5
42 -15 81 -20 40 -6 84 -16 99 -24 16 -8 44 -15 63 -15 20 0 41 -5 47 -11 6
-6 39 -13 74 -16 35 -3 73 -11 85 -18 11 -7 56 -18 99 -25 72 -11 79 -10 97 7
17 18 18 23 4 87 -8 37 -19 73 -25 79 -6 6 -11 23 -11 37 0 14 -6 34 -14 45
-7 11 -16 38 -20 60 -4 21 -14 52 -22 67 -8 15 -14 36 -14 47 0 11 -6 26 -14
33 -7 8 -16 35 -20 61 -4 25 -11 49 -16 52 -4 3 -11 23 -15 44 -4 22 -13 45
-21 52 -8 6 -14 22 -14 36 0 13 -7 40 -15 60 -8 19 -15 43 -15 52 0 9 -9 33
-20 54 -11 20 -20 47 -20 60 0 13 -7 32 -15 43 -8 10 -15 30 -15 44 0 14 -6
34 -14 45 -7 11 -16 38 -20 60 -4 21 -14 52 -22 67 -8 15 -14 36 -14 47 0 11
-7 26 -15 35 -8 8 -15 23 -15 34 0 28 -44 160 -58 174 -7 7 -12 23 -12 37 0
15 -6 38 -14 52 -7 14 -16 43 -20 64 -4 22 -14 48 -22 59 -8 11 -14 30 -14 41
0 12 -7 30 -15 41 -8 10 -15 30 -15 44 0 14 -9 43 -20 65 -11 22 -19 49 -20
61 0 11 -7 29 -15 40 -8 10 -15 30 -15 44 0 14 -6 34 -14 45 -7 11 -16 36 -20
56 -6 33 -22 55 -52 72 -6 3 -25 -9 -42 -28z"/>
</g>
</svg>
